HIERARCHY
ROOT SimulationBone
{
	OFFSET 0.000000 0.000000 0.000000
	CHANNELS 6 Xposition Yposition Zposition Zrotation Yrotation Xrotation 
	JOINT Hips
	{
		OFFSET 0.000000 0.000000 0.000000
		CHANNELS 6 Xposition Yposition Zposition Zrotation Yrotation Xrotation 
		JOINT RightUpLeg
		{
			OFFSET 0.103457 1.857834 10.548504
			CHANNELS 3 Zrotation Yrotation Xrotation
			JOINT RightLeg
			{
				OFFSET 43.499996 -0.000046 0.000000
				CHANNELS 3 Zrotation Yrotation Xrotation
				JOINT RightFoot
				{
					OFFSET 42.372192 0.000027 0.000002
					CHANNELS 3 Zrotation Yrotation Xrotation
					JOINT RightToe
					{
						OFFSET 17.299994 -0.000003 -0.000001
						CHANNELS 3 Zrotation Yrotation Xrotation
						End Site
						{
							OFFSET 0.000000 0.000000 0.000000
						}
					}
				}
			}
		}
		JOINT LeftUpLeg
		{
			OFFSET 0.103456 1.857832 -10.548504
			CHANNELS 3 Zrotation Yrotation Xrotation
			JOINT LeftLeg
			{
				OFFSET 43.500046 -0.000011 0.000010
				CHANNELS 3 Zrotation Yrotation Xrotation
				JOINT LeftFoot
				{
					OFFSET 42.372261 -0.000034 0.000021
					CHANNELS 3 Zrotation Yrotation Xrotation
					JOINT LeftToe
					{
						OFFSET 17.300011 0.000001 0.000002
						CHANNELS 3 Zrotation Yrotation Xrotation
						End Site
						{
							OFFSET 0.000000 0.000000 0.000000
						}
					}
				}
			}
		}
		JOINT Spine
		{
			OFFSET 6.901965 -2.603721 0.000001
			CHANNELS 3 Zrotation Yrotation Xrotation
			JOINT Spine1
			{
				OFFSET 12.588100 0.000000 -0.000000
				CHANNELS 3 Zrotation Yrotation Xrotation
				JOINT Spine2
				{
					OFFSET 12.343206 0.000005 0.000000
					CHANNELS 3 Zrotation Yrotation Xrotation
					JOINT Neck
					{
						OFFSET 25.832893 -0.000008 0.000000
						CHANNELS 3 Zrotation Yrotation Xrotation
						JOINT Head
						{
							OFFSET 11.766617 0.000009 0.000001
							CHANNELS 3 Zrotation Yrotation Xrotation
							End Site
							{
								OFFSET 0.000000 0.000000 0.000000
							}
						}
					}
					JOINT RightShoulder
					{
						OFFSET 19.745899 -1.480394 6.000106
						CHANNELS 3 Zrotation Yrotation Xrotation
						JOINT RightArm
						{
							OFFSET 11.284122 -0.000030 -0.000014
							CHANNELS 3 Zrotation Yrotation Xrotation
							JOINT RightForeArm
							{
								OFFSET 33.000050 0.000020 0.000016
								CHANNELS 3 Zrotation Yrotation Xrotation
								JOINT RightHand
								{
									OFFSET 25.200014 -0.000003 0.000011
									CHANNELS 3 Zrotation Yrotation Xrotation
									End Site
									{
										OFFSET 0.000000 0.000000 0.000000
									}
								}
							}
						}
					}
					JOINT LeftShoulder
					{
						OFFSET 19.746094 -1.480381 -6.000073
						CHANNELS 3 Zrotation Yrotation Xrotation
						JOINT LeftArm
						{
							OFFSET 11.284140 -0.000016 -0.000006
							CHANNELS 3 Zrotation Yrotation Xrotation
							JOINT LeftForeArm
							{
								OFFSET 33.000088 0.000015 0.000002
								CHANNELS 3 Zrotation Yrotation Xrotation
								JOINT LeftHand
								{
									OFFSET 25.199776 0.000133 0.000416
									CHANNELS 3 Zrotation Yrotation Xrotation
									End Site
									{
										OFFSET 0.000000 0.000000 0.000000
									}
								}
							}
						}
					}
				}
			}
		}
	}
}
MOTION
Frames: 9
Frame Time: 0.016667
-208.552599 0.000000 -434.254245 0.000000 38.851222 0.000000 0.512298 91.673500 0.672464 95.671223 -0.490162 178.254558 -177.476824 3.482503 159.100091 -19.576859 -2.391422 -20.518281 87.281088 13.235043 -5.561196 21.454558 0.003119 0.000020 170.625188 12.968003 -160.396611 -33.215305 1.006581 9.781481 82.313805 -4.915429 9.145073 21.454551 -0.003092 0.000000 8.471287 -1.268388 0.017610 6.931855 -2.535473 -0.040594 6.613422 -2.535801 -0.025276 6.481275 -3.561970 -20.718890 -17.979358 7.943756 -25.158013 136.185472 -73.157865 43.493559 4.646610 51.349778 37.263373 -34.854338 -19.686818 1.661007 9.815360 -6.917937 5.330815 174.370713 76.295995 -4.345794 -21.106252 -57.237403 -33.222131 -35.010350 17.875908 -1.521147 13.294718 13.421860 9.853191 
-208.464239 0.000000 -434.328630 0.000000 37.616631 0.000000 0.566997 91.633442 0.610698 95.793354 -0.481922 177.965126 -177.224141 3.542296 158.589987 -19.637576 -2.424071 -21.013417 87.345703 13.520978 -5.918169 21.454559 0.003109 0.000019 170.515467 12.603133 -159.413479 -33.798605 1.030259 10.676941 82.782404 -5.692652 8.577286 21.454552 -0.003092 0.000000 8.467929 -1.256451 -0.094213 6.927529 -2.504955 -0.263325 6.609116 -2.506626 -0.248194 6.550967 -3.145826 -20.692939 -18.107572 7.535501 -24.907902 135.308109 -73.366388 44.367020 4.752695 51.819610 38.268273 -34.345248 -19.559760 1.640919 9.811279 -6.086361 5.425710 174.424259 76.180237 -4.294508 -20.222985 -57.593699 -34.006940 -34.592888 17.701445 -1.500393 13.461424 13.325564 10.008743 
-208.344196 0.000000 -434.383826 0.000000 36.381974 0.000000 0.622767 91.611214 0.536632 95.913868 -0.491441 177.772706 -176.963890 3.591996 158.204202 -19.693198 -2.495210 -21.511763 87.351097 13.812942 -6.259678 21.454560 0.003102 0.000017 170.479732 12.244601 -158.077707 -34.372475 0.985230 11.529389 82.991380 -6.417305 8.007276 21.454555 -0.003092 0.000000 8.460848 -1.242975 -0.212319 6.915815 -2.471009 -0.498446 6.597424 -2.474103 -0.483518 6.624950 -2.702743 -20.539926 -18.235073 7.145833 -24.527518 134.210878 -73.542931 45.465564 4.762837 52.311533 39.476467 -33.718853 -19.539141 1.625265 9.828016 -5.254490 5.408384 174.338229 76.024440 -4.387084 -19.129527 -57.876166 -34.988746 -34.182719 17.503506 -1.478206 13.618239 13.028815 10.264279 
-208.193566 0.000000 -434.420138 0.000000 35.141842 0.000000 0.675980 91.635766 0.463414 96.025500 -0.460608 177.687304 -176.671519 3.569743 158.006914 -19.673165 -2.633552 -22.045212 87.249862 14.134926 -6.576663 21.454558 0.003107 0.000018 170.558952 11.799565 -156.291297 -34.832551 0.779037 12.283099 82.836988 -7.000903 7.668575 21.454555 -0.003094 -0.000000 8.448515 -1.213970 -0.331413 6.893393 -2.406033 -0.734506 6.575035 -2.410556 -0.719965 6.739426 -2.357293 -20.330770 -18.332609 6.889703 -24.156883 133.149884 -73.574799 46.538870 4.788420 52.695140 40.688824 -33.169224 -19.570326 1.614962 9.965041 -4.444821 5.543390 173.992325 75.911585 -4.744149 -17.859428 -58.164635 -36.202506 -33.713922 17.301545 -1.454489 13.771170 12.580889 10.741696 
-208.014637 0.000000 -434.436963 0.000000 33.891349 0.000000 0.733813 91.637741 0.403509 96.129004 -0.489545 177.697855 -176.432706 3.526795 157.888975 -19.788170 -2.817434 -22.559049 87.179700 14.436955 -6.940928 21.454557 0.003118 0.000019 170.783799 11.353700 -154.441791 -35.038429 0.542892 12.917359 82.628096 -7.433291 7.648430 21.454553 -0.003095 0.000000 8.434314 -1.188735 -0.446654 6.867071 -2.348882 -0.963059 6.548744 -2.354788 -0.948857 6.760693 -2.182037 -20.106053 -18.322532 6.811014 -23.857902 132.324312 -73.494867 47.382645 4.744005 52.924412 41.720208 -32.810824 -19.639751 1.611415 10.160630 -3.552914 6.069743 173.725710 75.874893 -5.017895 -16.492479 -58.493082 -37.581513 -33.210551 17.129119 -1.432502 13.891404 12.070505 11.295597 
-207.810241 0.000000 -434.434228 0.000000 32.626719 0.000000 0.805965 91.555215 0.363902 96.224188 -0.670112 177.787504 -176.313323 3.520152 157.701122 -20.215856 -3.010443 -22.978265 87.265039 14.659175 -7.414292 21.454556 0.003124 0.000019 171.187748 10.984487 -152.939930 -34.835945 0.408984 13.416333 82.704284 -7.737386 7.880495 21.454550 -0.003093 0.000000 8.421511 -1.187371 -0.552669 6.843582 -2.340012 -1.174623 6.525274 -2.347197 -1.160470 6.570264 -2.195911 -19.893389 -18.150403 6.907840 -23.653181 131.809613 -73.376737 47.914479 4.527496 53.006295 42.424388 -32.708131 -19.734880 1.615236 10.343498 -2.503469 7.112375 173.873951 75.922152 -4.864867 -15.099239 -58.877578 -39.036671 -32.697406 16.994538 -1.412989 13.948713 11.580981 11.713272 
-207.583150 0.000000 -434.412761 0.000000 31.344296 0.000000 0.898724 91.454292 0.330250 96.319055 -0.903495 177.942575 -176.188445 3.514407 157.304243 -20.717291 -3.151470 -23.239538 87.391190 14.769736 -7.944456 21.454557 0.003121 0.000018 171.774326 10.557911 -151.815898 -34.067012 0.294707 13.759401 83.107111 -8.000713 7.853486 21.454550 -0.003090 -0.000000 8.407640 -1.199954 -0.641533 6.817804 -2.360078 -1.352717 6.499511 -2.368340 -1.338440 6.282498 -2.259815 -19.696391 -17.901969 7.067738 -23.487643 131.328976 -73.305466 48.407709 4.174803 53.066384 42.805529 -32.804687 -19.806324 1.621965 10.532810 -1.461427 8.373410 174.325839 76.002522 -4.400422 -13.670314 -59.296804 -40.487950 -32.113629 16.790656 -1.387231 13.927682 11.129584 11.773881 
-207.336612 0.000000 -434.375004 0.000000 30.040644 0.000000 1.013128 91.414984 0.290067 96.426177 -1.068100 178.148820 -175.931080 3.456830 156.648949 -21.033860 -3.199930 -23.333130 87.409067 14.769818 -8.476528 21.454559 0.003108 0.000016 172.536402 9.936782 -151.009230 -32.647774 0.098759 13.902837 83.762397 -8.259812 7.167064 21.454552 -0.003090 -0.000000 8.389000 -1.209858 -0.705875 6.781970 -2.376335 -1.481540 6.463693 -2.385374 -1.467165 6.049257 -2.257462 -19.511686 -17.680613 7.197788 -23.313761 130.644664 -73.338592 49.098139 3.748521 53.215927 42.903969 -33.025390 -19.802410 1.626425 10.746191 -0.632198 9.497073 174.866819 76.076651 -3.845186 -12.196531 -59.734566 -41.885348 -31.378929 16.413001 -1.348059 13.846837 10.719712 11.365435 
-207.074738 0.000000 -434.324828 0.000000 28.714077 0.000000 1.139244 91.444893 0.256837 96.547756 -1.139953 178.384520 -175.598399 3.309797 156.035576 -21.243458 -3.239541 -23.442043 87.267905 14.773597 -9.056000 21.454562 0.003098 0.000016 173.485644 9.175592 -150.459777 -30.787804 -0.142457 13.722090 84.412012 -8.315150 6.312901 21.454555 -0.003090 -0.000000 8.362932 -1.203639 -0.743067 6.730470 -2.362101 -1.554989 6.412212 -2.371583 -1.540701 5.935267 -2.317967 -19.327490 -17.517658 7.392683 -23.187592 130.029286 -73.424318 49.713932 3.268736 53.395821 42.747581 -33.342063 -19.699242 1.627053 10.970529 -0.146626 10.314555 175.333415 76.210672 -3.364391 -10.726563 -60.229685 -43.311440 -30.417611 15.883919 -1.294526 13.836990 10.370077 10.817524 
